<svg xmlns="http://www.w3.org/2000/svg" viewBox="0 0 512 512" fill="#f44336">
  <path d="M396 96h-84V44c0-6.6-5.4-12-12-12h-8c-6.6 0-12 5.4-12 12v52h-80V44c0-6.6-5.4-12-12-12h-8c-6.6 0-12 5.4-12 12v52h-84c-26.5 0-48 21.5-48 48v304c0 26.5 21.5 48 48 48h320c26.5 0 48-21.5 48-48V144c0-26.5-21.5-48-48-48zm0 352H116c-8.8 0-16-7.2-16-16V196h312v236c0 8.8-7.2 16-16 16zm0-304H116v-28c0-8.8 7.2-16 16-16h48v40c0 6.6 5.4 12 12 12h8c6.6 0 12-5.4 12-12v-40h80v40c0 6.6 5.4 12 12 12h8c6.6 0 12-5.4 12-12v-40h48c8.8 0 16 7.2 16 16v28z"/>
  <rect x="160" y="224" width="48" height="32" rx="4" ry="4"/>
  <rect x="232" y="224" width="48" height="32" rx="4" ry="4"/>
  <rect x="304" y="224" width="48" height="32" rx="4" ry="4"/>
  <rect x="160" y="288" width="48" height="32" rx="4" ry="4"/>
  <rect x="232" y="288" width="48" height="32" rx="4" ry="4"/>
  <rect x="304" y="288" width="48" height="32" rx="4" ry="4"/>
  <rect x="160" y="352" width="48" height="32" rx="4" ry="4"/>
  <rect x="232" y="352" width="48" height="32" rx="4" ry="4"/>
</svg> 