<svg xmlns="http://www.w3.org/2000/svg" viewBox="0 0 512 512" fill="#9c27b0">
  <path d="M384 32H128c-17.7 0-32 14.3-32 32v384c0 17.7 14.3 32 32 32h256c17.7 0 32-14.3 32-32V64c0-17.7-14.3-32-32-32zm-32 384H160V96h192v320z"/>
  <path d="M176 160h160c8.8 0 16-7.2 16-16v-16c0-8.8-7.2-16-16-16H176c-8.8 0-16 7.2-16 16v16c0 8.8 7.2 16 16 16z"/>
  <path d="M176 224h160c8.8 0 16-7.2 16-16v-16c0-8.8-7.2-16-16-16H176c-8.8 0-16 7.2-16 16v16c0 8.8 7.2 16 16 16z"/>
  <path d="M176 288h160c8.8 0 16-7.2 16-16v-16c0-8.8-7.2-16-16-16H176c-8.8 0-16 7.2-16 16v16c0 8.8 7.2 16 16 16z"/>
  <path d="M176 352h96c8.8 0 16-7.2 16-16v-16c0-8.8-7.2-16-16-16h-96c-8.8 0-16 7.2-16 16v16c0 8.8 7.2 16 16 16z"/>
</svg> 